<svg width="16" height="16" viewBox="0 0 16 16" fill="none" xmlns="http://www.w3.org/2000/svg">
<path fill-rule="evenodd" clip-rule="evenodd" d="M9.41401 8.00001L12.707 4.70701C13.098 4.31601 13.098 3.68401 12.707 3.29301C12.316 2.90201 11.684 2.90201 11.293 3.29301L8.00001 6.58601L4.70701 3.29301C4.31601 2.90201 3.68401 2.90201 3.29301 3.29301C2.90201 3.68401 2.90201 4.31601 3.29301 4.70701L6.58601 8.00001L3.29301 11.293C2.90201 11.684 2.90201 12.316 3.29301 12.707C3.48801 12.902 3.74401 13 4.00001 13C4.25601 13 4.51201 12.902 4.70701 12.707L8.00001 9.41401L11.293 12.707C11.488 12.902 11.744 13 12 13C12.256 13 12.512 12.902 12.707 12.707C13.098 12.316 13.098 11.684 12.707 11.293L9.41401 8.00001Z" fill="#202532"/>
</svg>
