<svg width="24" height="24" viewBox="0 0 24 24" fill="none" xmlns="http://www.w3.org/2000/svg">
<path fill-rule="evenodd" clip-rule="evenodd" d="M4.5 19.5C3.67157 19.5 3 18.8284 3 18C3 14.6863 5.68629 12 9 12C10.0935 12 11.1188 12.2926 12.0017 12.8037C12.8824 12.2922 13.9071 12 15 12C18.3137 12 21 14.6863 21 18C21 18.7693 20.4209 19.4033 19.6749 19.4899L19.5 19.5H4.5ZM9 4.5C10.6569 4.5 12 5.84315 12 7.5C12 9.15685 10.6569 10.5 9 10.5C7.34315 10.5 6 9.15685 6 7.5C6 5.84315 7.34315 4.5 9 4.5ZM15.75 6C16.9926 6 18 7.00736 18 8.25C18 9.49264 16.9926 10.5 15.75 10.5C14.5074 10.5 13.5 9.49264 13.5 8.25C13.5 7.00736 14.5074 6 15.75 6Z" fill="#50545E"/>
</svg>
