<svg width="20" height="20" viewBox="0 0 20 20" fill="none" xmlns="http://www.w3.org/2000/svg">
<path fill-rule="evenodd" clip-rule="evenodd" d="M4.99999 20C3.34314 20 1.99999 18.6569 1.99999 17V11H0.999991C0.109086 11 -0.337081 9.92286 0.292884 9.29289L9.29288 0.292893C9.68341 -0.0976311 10.3166 -0.0976311 10.7071 0.292893L19.7071 9.29289C20.3371 9.92286 19.8909 11 19 11H18V17C18 18.6569 16.6568 20 15 20H4.99999ZM9.99999 2.41421L3.3509 9.0633C3.73009 9.20542 3.99999 9.57119 3.99999 10V17C3.99999 17.5523 4.44771 18 4.99999 18L6.99999 17.999L6.99999 14C6.99999 12.8954 7.89542 12 8.99999 12H11C12.1046 12 13 12.8954 13 14L13 17.999L15 18C15.5523 18 16 17.5523 16 17V10C16 9.57119 16.2699 9.20542 16.6491 9.0633L9.99999 2.41421ZM11 14H8.99999L8.99999 17.999H11L11 14Z" fill="#2F80ED"/>
</svg>
