<svg width="24" height="24" viewBox="0 0 24 24" fill="none" xmlns="http://www.w3.org/2000/svg">
<path d="M8.625 18.4286C8.95312 18.4286 9.22266 18.5491 9.43359 18.7902C9.64453 19.0312 9.75 19.3393 9.75 19.7143C9.75 20.0893 9.64453 20.3973 9.43359 20.6384C9.22266 20.8795 8.95312 21 8.625 21H6.375C5.41406 20.9732 4.61719 20.5982 3.98438 19.875C3.35156 19.1518 3.02344 18.2411 3 17.1429V6.85714C3.02344 5.75893 3.35156 4.84821 3.98438 4.125C4.61719 3.40179 5.41406 3.02679 6.375 3H8.625C8.95312 3 9.22266 3.12054 9.43359 3.36161C9.64453 3.60268 9.75 3.91071 9.75 4.28571C9.75 4.66071 9.64453 4.96875 9.43359 5.20982C9.22266 5.45089 8.95312 5.57143 8.625 5.57143H6.375C6.04688 5.57143 5.77734 5.69196 5.56641 5.93304C5.35547 6.17411 5.25 6.48214 5.25 6.85714V17.1429C5.25 17.5179 5.35547 17.8259 5.56641 18.067C5.77734 18.308 6.04688 18.4286 6.375 18.4286H8.625ZM20.6836 11.0759C20.8945 11.3438 21 11.6518 21 12C21 12.3482 20.8945 12.6562 20.6836 12.9241L16.1836 18.067C15.9492 18.308 15.6797 18.4286 15.375 18.4286C15.0703 18.4286 14.8008 18.308 14.5664 18.067C14.3555 17.7991 14.25 17.4911 14.25 17.1429C14.25 16.7946 14.3555 16.4866 14.5664 16.2188L17.168 13.2857H9.75C9.42188 13.2857 9.15234 13.1652 8.94141 12.9241C8.73047 12.683 8.625 12.375 8.625 12C8.625 11.625 8.73047 11.317 8.94141 11.0759C9.15234 10.8348 9.42188 10.7143 9.75 10.7143H17.168L14.5664 7.78125C14.3555 7.51339 14.25 7.20536 14.25 6.85714C14.25 6.50893 14.3555 6.20089 14.5664 5.93304C14.8008 5.69196 15.0703 5.57143 15.375 5.57143C15.6797 5.57143 15.9492 5.69196 16.1836 5.93304L20.6836 11.0759Z" fill="#50545E"/>
</svg>
